<?xml version="1.0" encoding="UTF-8" ?>
<!DOCTYPE svg PUBLIC "-//W3C//DTD SVG 1.1//EN" "http://www.w3.org/Graphics/SVG/1.1/DTD/svg11.dtd">
<svg width="32pt" height="32pt" viewBox="0 0 32 32" version="1.1" xmlns="http://www.w3.org/2000/svg">
<path fill="#ffffff" d=" M 0.00 0.00 L 32.00 0.00 L 32.00 32.00 L 0.00 32.00 L 0.00 0.00 Z" />
<path fill="#3f3f3f" d=" M 5.88 3.79 C 6.87 3.24 7.73 2.28 8.94 2.23 C 13.29 2.08 17.65 2.12 22.01 2.21 C 23.63 2.09 25.49 3.16 25.39 4.97 C 25.65 8.46 25.46 11.97 25.46 15.46 C 27.24 15.82 31.03 14.68 30.79 17.54 C 29.71 18.88 28.31 19.92 27.00 21.02 C 27.79 21.09 29.35 21.22 30.13 21.29 C 30.61 24.44 30.33 27.65 30.25 30.82 C 20.73 30.83 11.22 30.81 1.71 30.84 C 1.58 27.65 1.30 24.43 1.81 21.27 C 2.71 21.21 4.51 21.09 5.41 21.03 C 3.81 19.68 2.25 18.29 0.72 16.85 C 2.23 15.63 4.13 15.55 5.97 15.43 C 5.93 11.55 6.01 7.67 5.88 3.79 Z" />
<path fill="#ffffff" d=" M 7.76 4.15 C 12.95 4.15 18.15 4.16 23.34 4.13 C 23.35 6.26 23.33 8.39 23.32 10.51 C 18.31 10.60 13.30 10.44 8.29 10.68 C 8.08 8.50 7.84 6.33 7.76 4.15 Z" />
<path fill="#ffffff" d=" M 21.72 19.00 C 22.46 19.00 23.94 19.00 24.68 19.00 C 24.69 20.02 24.70 21.03 24.71 22.05 C 26.27 22.09 27.82 22.12 29.37 22.16 C 29.36 24.62 29.36 27.08 29.37 29.54 C 28.39 29.65 26.43 29.88 25.45 29.99 C 26.32 27.64 26.59 25.13 26.13 22.65 C 24.25 23.88 24.73 26.19 24.59 28.09 L 25.86 27.98 C 24.63 28.88 23.31 29.68 21.83 30.09 C 21.70 26.40 21.74 22.70 21.72 19.00 Z" />
<path fill="#ffffff" d=" M 2.69 22.12 C 5.45 22.09 8.22 22.04 10.97 22.27 C 9.31 23.37 7.28 23.37 5.43 23.90 C 5.72 26.28 8.72 25.01 10.34 25.48 C 10.37 26.86 10.38 28.25 10.40 29.63 C 7.86 29.70 5.31 29.74 2.77 29.78 C 2.78 29.45 2.80 28.80 2.81 28.47 C 4.63 28.36 6.45 28.23 8.26 27.96 C 6.71 26.64 4.71 26.64 2.79 26.65 C 2.78 25.14 2.71 23.63 2.69 22.12 Z" />
<path fill="#ffffff" d=" M 11.56 23.24 C 13.65 20.96 17.21 22.54 19.92 22.18 C 19.92 24.68 19.93 27.18 19.94 29.68 C 17.33 29.70 14.72 29.70 12.10 29.69 C 12.08 28.31 12.06 26.93 12.03 25.55 C 12.93 25.41 14.74 25.14 15.64 25.00 C 15.42 25.84 14.99 27.53 14.78 28.37 C 18.17 28.96 16.45 25.24 16.81 23.32 C 15.06 23.34 13.31 23.35 11.56 23.24 Z" />
</svg>
